<svg xmlns="http://www.w3.org/2000/svg"  viewBox="0 0 100 100" width="100px" height="100px" baseProfile="basic"><path d="M84.71,72.27C70.28,93.16,40.56,96.81,39.3,96.96C39.06,96.99,38.8,97,38.55,97	c-2.66,0-5.02-1.59-6.02-4.06c0,0-15.31-36.96-15.71-38.18c-9.21-27.93,6.79-40.27,11.92-43.39C33.51,8.47,38.97,7,44.98,7	c8.88,0,18.52,3.3,26.45,9.05c2.41,1.75,3.32,4.9,2.22,7.67c-0.14,0.35-0.31,0.68-0.5,0.99c0.45,0.18,0.88,0.4,1.28,0.68	c10.19,6.92,13.77,16.08,14.98,22.55C91.02,56.58,89.27,65.68,84.71,72.27z" opacity=".35"/><path fill="#f2f2f2" d="M82.71,70.27C68.28,91.16,38.56,94.81,37.3,94.96C37.06,94.99,36.8,95,36.55,95	c-2.66,0-5.02-1.59-6.02-4.06c0,0-15.31-36.96-15.71-38.18C5.61,24.83,21.61,12.49,26.74,9.37C31.51,6.47,36.97,5,42.98,5	c8.88,0,18.52,3.3,26.45,9.05c2.41,1.75,3.32,4.9,2.22,7.67c-0.14,0.35-0.31,0.68-0.5,0.99c0.45,0.18,0.88,0.4,1.28,0.68	c10.19,6.92,13.77,16.08,14.98,22.55C89.02,54.58,87.27,63.68,82.71,70.27z"/><path fill="#707cc0" d="M36.553,88.5L23.377,56.074c0,0,34.293,11.747,46.93-8.091c5.626-8.831-1.534-19.22-1.534-19.22	c14.846,10.083,15.263,28.157,8.59,37.814C64.432,85.291,36.553,88.5,36.553,88.5z"/><path fill="#707cc0" d="M46.978,30.108c6.034-8.014,24.598,4.243,17.636,13.199S40.253,39.04,46.978,30.108z"/><path fill="#707cc0" d="M20.991,50.729c-6.324-19.18,0.374-30.476,9.127-35.803c10.387-6.321,24.846-3.338,35.494,4.387	c-26.864-3.541-33.109,10.8-19.268,35.021L20.991,50.729z"/><path fill="#40396e" d="M36.552,90c-0.604,0-1.158-0.365-1.389-0.936L21.987,56.638c-0.221-0.544-0.104-1.168,0.3-1.595	c0.403-0.428,1.019-0.581,1.576-0.389c0.331,0.112,33.327,11.127,45.18-7.478c5.013-7.869-1.44-17.469-1.506-17.564	c-0.407-0.595-0.334-1.396,0.174-1.907c0.51-0.511,1.309-0.589,1.905-0.184c8.768,5.956,11.841,13.803,12.875,19.336	c1.376,7.362-0.08,15.053-3.894,20.572C65.431,86.483,37.89,89.855,36.724,89.99C36.667,89.997,36.609,90,36.552,90z M25.946,58.411	L37.5,86.847c5.26-0.842,27.687-5.287,38.629-21.122c3.369-4.876,4.645-11.723,3.413-18.315c-0.693-3.708-2.409-8.574-6.516-13.038	c1.241,4.04,1.738,9.407-1.453,14.417C60.58,66.042,34.854,60.845,25.946,58.411z"/><path fill="#40396e" d="M58.451,47.765c-3.024,0.001-6.203-1.247-8.788-3.225c-4.715-3.607-7.942-9.944-3.884-15.334l0,0	c1.844-2.449,4.804-3.551,8.339-3.099c5.373,0.686,10.876,4.718,12.801,9.379c1.269,3.073,0.871,6.178-1.122,8.741	C63.862,46.718,61.221,47.765,58.451,47.765z M52.604,29.009c-1.517,0-3.242,0.426-4.429,2.002l0,0	c-2.828,3.755-0.266,8.41,3.311,11.146c3.662,2.801,8.96,4.07,11.944,0.229c1.34-1.725,1.582-3.66,0.717-5.755	c-1.495-3.62-6.164-7.006-10.408-7.548C53.384,29.038,53.001,29.009,52.604,29.009z M46.978,30.108h0.01H46.978z"/><path fill="#40396e" d="M46.345,55.834c-0.07,0-0.141-0.005-0.211-0.015L20.78,52.215c-0.565-0.08-1.035-0.474-1.214-1.016	c-7.833-23.762,4.225-34.179,9.772-37.554c11.652-7.09,27.056-2.872,37.155,4.454c0.556,0.402,0.767,1.132,0.513,1.77	c-0.254,0.637-0.915,1.019-1.589,0.932c-11.549-1.522-19.428,0.312-22.781,5.305c-3.726,5.549-1.946,15.31,5.011,27.484	c0.284,0.497,0.26,1.113-0.061,1.587C47.304,55.591,46.837,55.834,46.345,55.834z M22.131,49.377l21.454,3.05	c-6.404-12.155-7.601-21.798-3.44-27.993c3.33-4.958,9.967-7.385,19.357-7.126c-8.84-4.583-19.948-6.366-28.604-1.1	C24.854,19.886,15.774,29.057,22.131,49.377z"/></svg>